<svg xmlns="http://www.w3.org/2000/svg" viewBox="0 0 96 96" role="img" aria-label="Meridian camera">
<!-- SPDX-License-Identifier: GPL-3.0-or-later; original Meridian artwork. -->
<defs><linearGradient id="surface" x1="0" y1="0" x2="0" y2="1"><stop stop-color="#bcc39b"/><stop offset="1" stop-color="#8b9a6c"/></linearGradient></defs>
<path d="M28 4H68C85 4 92 11 92 28V68C92 85 85 92 68 92H28C11 92 4 85 4 68V28C4 11 11 4 28 4Z" fill="url(#surface)"/>
<path d="M28 5H68C84 5 91 12 91 28V68C91 84 84 91 68 91H28C12 91 5 84 5 68V28C5 12 12 5 28 5Z" fill="none" stroke="#ffffff30"/>
<path d="M23 35h13l5-8h15l5 8h12v33H23Z" fill="#fff"/><circle cx="48" cy="51" r="12" fill="#9eac7e"/><circle cx="48" cy="51" r="7" fill="#fff"/>
</svg>
