<svg xmlns="http://www.w3.org/2000/svg" viewBox="0 0 96 96" role="img" aria-label="Meridian game">
<!-- SPDX-License-Identifier: GPL-3.0-or-later; original Meridian artwork. -->
<defs><linearGradient id="surface" x1="0" y1="0" x2="0" y2="1"><stop stop-color="#bbaed1"/><stop offset="1" stop-color="#8477a7"/></linearGradient></defs>
<path d="M28 4H68C85 4 92 11 92 28V68C92 85 85 92 68 92H28C11 92 4 85 4 68V28C4 11 11 4 28 4Z" fill="url(#surface)"/>
<path d="M28 5H68C84 5 91 12 91 28V68C91 84 84 91 68 91H28C12 91 5 84 5 68V28C5 12 12 5 28 5Z" fill="none" stroke="#ffffff30"/>
<path d="M34 34h28c8 0 15 14 15 28 0 10-8 11-16-1H35c-8 12-16 11-16 1 0-14 7-28 15-28Z" fill="#fff"/><path d="M30 45v13M24 51h12" stroke="#9b8db8" stroke-width="3" stroke-linecap="round"/><circle cx="61" cy="46" r="3" fill="#b2a0c8"/><circle cx="67" cy="54" r="3" fill="#b2a0c8"/>
</svg>
