<svg xmlns="http://www.w3.org/2000/svg" viewBox="0 0 96 96" role="img" aria-label="Meridian store">
<!-- SPDX-License-Identifier: GPL-3.0-or-later; original Meridian artwork. -->
<defs><linearGradient id="surface" x1="0" y1="0" x2="0" y2="1"><stop stop-color="#c2b3dc"/><stop offset="1" stop-color="#8e7caf"/></linearGradient></defs>
<path d="M28 4H68C85 4 92 11 92 28V68C92 85 85 92 68 92H28C11 92 4 85 4 68V28C4 11 11 4 28 4Z" fill="url(#surface)"/>
<path d="M28 5H68C84 5 91 12 91 28V68C91 84 84 91 68 91H28C12 91 5 84 5 68V28C5 12 12 5 28 5Z" fill="none" stroke="#ffffff30"/>
<path d="M28 37h40l4 34H24Z" fill="#fff"/><path d="M38 40V30a10 10 0 0 1 20 0v10" fill="none" stroke="#fff" stroke-width="4" stroke-linecap="round"/><path d="m40 54 6 6 12-13" fill="none" stroke="#a293c0" stroke-width="3" stroke-linecap="round"/>
</svg>
